. 
 
http://www.torrenting.com          :     Once & For all ;)


               www . Torrenting . Com 

(((((((((((((= Enjoy No RAR releases =))))))))))))))))))))


...................................NFO:....................................

.ooooo oooo   oooo oooooooo8 oooooooooo  o88   oooooooooo       o      ooooo       
 888   8888o  88 888         888    888 oooo   888    888     888      888        
 888   88 888o88  888oooooo  888oooo88   888   888oooo88     8  88     888        
 888   88   8888         888 888         888   888  88o     8oooo88    888      o 
o888o o88o    88 o88oooo888 o888o       o888o o888o  88o8 o88o  o888o o888ooooo88 

 
TITLE: 

The Sitter 2011 CAM XViD - INSPiRAL

IMDB: 
 
http://www.imdb.com/title/tt1366344/


SOURCES:

VIDEO - The Sitter 2011 720p CAM Xvid UnKnOwN
AUDIO - The Sitter 2011 720p CAM Xvid UnKnOwN
SUBS  - None Add

STATS:

Video
ID                               : 0
Format                           : MPEG-4 Visual
Format profile                   : Advanced Simple@L5
Format settings, BVOP            : 2
Format settings, QPel            : No
Format settings, GMC             : No warppoints
Format settings, Matrix          : Default (MPEG)
Muxing mode                      : Packed bitstream
Codec ID                         : XVID
Codec ID/Hint                    : XviD
Duration                         : 1h 16mn
Bit rate                         : 2 409 Kbps
Width                            : 720 pixels
Height                           : 384 pixels
Display aspect ratio             : 1.875
Frame rate                       : 29.970 fps
Color space                      : YUV
Chroma subsampling               : 4:2:0
Bit depth                        : 8 bits
Scan type                        : Progressive
Compression mode                 : Lossy
Bits/(Pixel*Frame)               : 0.291
Stream size                      : 1.29 GiB (95%)
Writing library                  : XviD 64

Audio
ID                               : 1
Format                           : MPEG Audio
Format version                   : Version 1
Format profile                   : Layer 3
Codec ID                         : 55
Codec ID/Hint                    : MP3
Duration                         : 1h 16mn
Bit rate mode                    : Constant
Bit rate                         : 128 Kbps
Channel(s)                       : 2 channels
Sampling rate                    : 44.1 KHz
Compression mode                 : Lossy
Stream size                      : 70.4 MiB (5%)
Alignment                        : Split accross interleaves
Interleave, duration             : 33 ms (1.00 video frame)
Interleave, preload duration     : 500 ms



NOTES:

Really nice here by unknown so thanks for the 720p release but even more thanks to the cammer ...top stuff.
Right video was nice ...cammed at a slight angle,looks a touch dull in parts and the colours seem to go right correct to 
slightly off.
Audio very decent for cam but quite loud and contains some hiss .....
Cleaned video and made it brighter,so black might be slightly off in parts,but tried to balance it out the best i could.
Also opted to give the colours and chroma a slight tweak ,but nothing major ....and also ran a HQ smoother to remove some
video noise...and finally added some sharpness back to it.
Audio totally remastered and cleaned up ...used hiss and noise filters,aswell as totally changing the EQ levels on all bands.


SCREENS:

[IMG]http://i.imgur.com/7JJxs.png[/IMG]
[IMG]http://i.imgur.com/bi1b3.png[/IMG]
[IMG]http://i.imgur.com/G5s4a.png[/IMG]
[IMG]http://i.imgur.com/E8Mul.png[/IMG]


GREETZ: 

Past,Present and Future